<?xml version="1.0" encoding="UTF-8"?>
<!DOCTYPE svg PUBLIC "-//W3C//DTD SVG 1.1//EN" "http://www.w3.org/Graphics/SVG/1.1/DTD/svg11.dtd">
<svg xmlns="http://www.w3.org/2000/svg" version="1.1" width="1080px" height="1080px" style="shape-rendering:geometricPrecision; text-rendering:geometricPrecision; image-rendering:optimizeQuality; fill-rule:evenodd; clip-rule:evenodd" xmlns:xlink="http://www.w3.org/1999/xlink">
<g><path style="opacity:1" fill="#fefefe" d="M -0.5,-0.5 C 359.5,-0.5 719.5,-0.5 1079.5,-0.5C 1079.5,359.5 1079.5,719.5 1079.5,1079.5C 719.5,1079.5 359.5,1079.5 -0.5,1079.5C -0.5,719.5 -0.5,359.5 -0.5,-0.5 Z"/></g>
<g><path style="opacity:1" fill="#0e77f9" d="M 771.5,288.5 C 682.167,288.5 592.833,288.5 503.5,288.5C 503.5,522.5 503.5,756.5 503.5,990.5C 439.167,990.5 374.833,990.5 310.5,990.5C 310.5,756.5 310.5,522.5 310.5,288.5C 221.167,288.5 131.833,288.5 42.5,288.5C 42.5,229.167 42.5,169.833 42.5,110.5C 285.5,110.5 528.5,110.5 771.5,110.5C 771.5,169.833 771.5,229.167 771.5,288.5 Z"/></g>
<g><path style="opacity:1" fill="#b5d5fd" d="M 42.5,288.5 C 131.833,288.5 221.167,288.5 310.5,288.5C 310.5,522.5 310.5,756.5 310.5,990.5C 309.5,757.001 309.167,523.334 309.5,289.5C 220.332,289.833 131.332,289.499 42.5,288.5 Z"/></g>
<g><path style="opacity:1" fill="#e1eefd" d="M 771.5,288.5 C 682.668,289.499 593.668,289.833 504.5,289.5C 504.833,523.334 504.5,757.001 503.5,990.5C 503.5,756.5 503.5,522.5 503.5,288.5C 592.833,288.5 682.167,288.5 771.5,288.5 Z"/></g>
<g><path style="opacity:1" fill="#4596fa" d="M 718.5,432.5 C 678.833,432.5 639.167,432.5 599.5,432.5C 599.832,468.337 599.498,504.004 598.5,539.5C 598.5,503.5 598.5,467.5 598.5,431.5C 638.67,431.168 678.67,431.501 718.5,432.5 Z"/></g>
<g><path style="opacity:1" fill="#0f78f9" d="M 718.5,432.5 C 718.5,468.167 718.5,503.833 718.5,539.5C 751.5,539.5 784.5,539.5 817.5,539.5C 817.5,573.5 817.5,607.5 817.5,641.5C 784.329,641.168 751.329,641.502 718.5,642.5C 718.333,705.834 718.5,769.168 719,832.5C 723.249,854.403 736.582,864.737 759,863.5C 779.258,863.186 798.258,858.186 816,848.5C 816.833,880.838 816.667,913.172 815.5,945.5C 773.499,967.425 729.165,974.258 682.5,966C 639.154,956.987 612.654,930.821 603,887.5C 600.766,877.297 599.433,866.964 599,856.5C 598.5,785.167 598.333,713.834 598.5,642.5C 581.833,642.5 565.167,642.5 548.5,642.5C 548.5,608.167 548.5,573.833 548.5,539.5C 565.167,539.5 581.833,539.5 598.5,539.5C 599.498,504.004 599.832,468.337 599.5,432.5C 639.167,432.5 678.833,432.5 718.5,432.5 Z"/></g>
<g><path style="opacity:1" fill="#6ea9fb" d="M 817.5,539.5 C 818.498,573.663 818.832,607.996 818.5,642.5C 785.167,642.5 751.833,642.5 718.5,642.5C 751.833,642.5 785.167,642.5 818.5,642.5C 818.832,607.996 818.498,573.663 817.5,539.5 Z"/></g>
</svg>
